<svg xmlns="http://www.w3.org/2000/svg" viewBox="0 0 200 200">
  <defs>
    <linearGradient id="g3" x1="0" y1="0" x2="1" y2="1">
      <stop offset="0" stop-color="#036f77"/>
      <stop offset="1" stop-color="#132241"/>
    </linearGradient>
  </defs>
  <rect width="200" height="200" rx="28" fill="url(#g3)"/>
  <!-- housing -->
  <rect x="42" y="62" width="116" height="76" rx="12" fill="none" stroke="#ffffff" stroke-width="4" opacity="0.6"/>
  <!-- hot flow (orange) -->
  <path d="M50 84 C70 84 70 100 90 100 C110 100 110 84 130 84 C140 84 145 84 150 84" fill="none" stroke="#ff6b35" stroke-width="5" stroke-linecap="round"/>
  <path d="M144 78 L152 84 L144 90" fill="none" stroke="#ff6b35" stroke-width="4" stroke-linecap="round" stroke-linejoin="round"/>
  <!-- cold flow (white/teal) -->
  <path d="M150 116 C130 116 130 132 110 132 C90 132 90 116 70 116 C60 116 55 116 50 116" fill="none" stroke="#ffffff" stroke-width="5" stroke-linecap="round"/>
  <path d="M56 122 L48 116 L56 110" fill="none" stroke="#ffffff" stroke-width="4" stroke-linecap="round" stroke-linejoin="round"/>
</svg>
